# Exported from Wings 3D 0.98.31
mtllib axe1.mtl
#49 vertices, 35 faces
v 0.21828166 1.1066469e-2 0.59594532
v 0.21939953 -7.4322747e-4 0.58385533
v 0.21755575 -1.0755005e-2 0.55002097
v 0.21303102 -1.7444661e-2 0.49959321
v 0.20651419 -1.9793755e-2 0.44024923
v 0.19899738 -1.7444661e-2 0.38102359
v 0.19162497 -1.0755005e-2 0.33093288
v 0.18551933 -7.4322747e-4 0.29760294
v 0.18160999 1.1066469e-2 0.28610796
v 0.18049212 2.2876166e-2 0.29819795
v 0.18233590 3.2887943e-2 0.33203231
v 0.18686063 3.9577599e-2 0.38246007
v 0.19337746 4.1926694e-2 0.44180406
v 0.20089427 3.9577599e-2 0.50102969
v 0.20826669 3.2887943e-2 0.55112041
v 0.21437233 2.2876166e-2 0.58445034
v -0.10961292 8.4472417e-3 0.47766533
v 2.8509823e-2 4.6728032e-3 0.55164297
v 2.7274845e-2 -1.5356069e-3 0.55158771
v 2.3757924e-2 -6.7988428e-3 0.55154086
v 1.8494479e-2 -1.0315625e-2 0.55150955
v 1.2285823e-2 -1.1550554e-2 0.55149856
v 6.0771671e-3 -1.0315625e-2 0.55150955
v 8.1372271e-4 -6.7988428e-3 0.55154086
v -2.7031984e-3 -1.5356069e-3 0.55158771
v -3.9381769e-3 4.6728032e-3 0.55164297
v -2.7031984e-3 1.0881213e-2 0.55169823
v 8.1372271e-4 1.6144449e-2 0.55174508
v 6.0771671e-3 1.9661231e-2 0.55177639
v 1.2285823e-2 2.0896160e-2 0.55178738
v 1.8494479e-2 1.9661231e-2 0.55177639
v 2.3757924e-2 1.6144449e-2 0.55174508
v 2.7274845e-2 1.0881213e-2 0.55169823
v 2.8509823e-2 9.5661084e-3 1.9207485e-3
v 2.7274845e-2 3.3576983e-3 1.8654849e-3
v 2.3757924e-2 -1.9055375e-3 1.8186347e-3
v 1.8494479e-2 -5.4223193e-3 1.7873303e-3
v 1.2285823e-2 -6.6572489e-3 1.7763377e-3
v 6.0771671e-3 -5.4223193e-3 1.7873303e-3
v 8.1372271e-4 -1.9055375e-3 1.8186347e-3
v -2.7031984e-3 3.3576983e-3 1.8654849e-3
v -3.9381769e-3 9.5661084e-3 1.9207485e-3
v -2.7031984e-3 1.5774518e-2 1.9760122e-3
v 8.1372271e-4 2.1037754e-2 2.0228624e-3
v 6.0771671e-3 2.4554536e-2 2.0541667e-3
v 1.2285823e-2 2.5789466e-2 2.0651594e-3
v 1.8494479e-2 2.4554536e-2 2.0541667e-3
v 2.3757924e-2 2.1037754e-2 2.0228624e-3
v 2.7274845e-2 1.5774518e-2 1.9760122e-3
vn 0.33934310 9.3105863e-2 0.93604357
vn 0.34563441 -0.81133279 0.47146151
vn 0.39873802 -0.90249667 0.16281205
vn 0.41084719 -0.91094424 3.7217880e-2
vn 0.40738368 -0.91198336 -4.8217036e-2
vn 0.39080711 -0.91094424 -0.13209992
vn 0.34971314 -0.90249667 -0.25139708
vn 0.22602400 -0.81133279 -0.53912174
vn 0.11145200 9.3105863e-2 -0.98939868
vn 0.15693218 0.85377970 -0.49641969
vn 0.27163320 0.93705941 -0.21939704
vn 0.30974336 0.94418491 -0.11213340
vn 0.32470854 0.94503300 -3.8431788e-2
vn 0.32736215 0.94418491 3.6726991e-2
vn 0.31534517 0.93705941 0.14992357
vn 0.26848301 0.85377970 0.44606849
vn -0.99076920 -6.8009239e-2 0.11726526
vn 0.89090915 -4.0426980e-3 0.45416356
vn 0.82309273 -0.34496536 0.45112886
vn 0.62996790 -0.63398565 0.44855617
vn 0.34093617 -0.82710282 0.44683716
vn 0.0000000e+0 -0.89491656 0.44623352
vn -0.34093617 -0.82710282 0.44683716
vn -0.62996790 -0.63398565 0.44855617
vn -0.82309273 -0.34496536 0.45112886
vn -0.89090915 -4.0426980e-3 0.45416356
vn -0.82309273 0.33687997 0.45719825
vn -0.62996790 0.62590025 0.45977094
vn -0.34093617 0.81901743 0.46148995
vn -1.0084856e-16 0.88683116 0.46209359
vn 0.34093617 0.81901743 0.46148995
vn 0.62996790 0.62590025 0.45977094
vn 0.82309273 0.33687997 0.45719825
vn 0.89090915 4.0426980e-3 -0.45416356
vn 0.82309273 -0.33687997 -0.45719825
vn 0.62996790 -0.62590025 -0.45977094
vn 0.34093617 -0.81901743 -0.46148995
vn 0.0000000e+0 -0.88683116 -0.46209359
vn -0.34093617 -0.81901743 -0.46148995
vn -0.62996790 -0.62590025 -0.45977094
vn -0.82309273 -0.33687997 -0.45719825
vn -0.89090915 4.0426980e-3 -0.45416356
vn -0.82309273 0.34496536 -0.45112886
vn -0.62996790 0.63398565 -0.44855617
vn -0.34093617 0.82710282 -0.44683716
vn -1.0084856e-16 0.89491656 -0.44623352
vn 0.34093617 0.82710282 -0.44683716
vn 0.62996790 0.63398565 -0.44855617
vn 0.82309273 0.34496536 -0.45112886
usemtl default
f 1//1 17//17 2//2
f 2//2 3//3 4//4 5//5 6//6 7//7 8//8 9//9 10//10 11//11 12//12 13//13 14//14 15//15 16//16 1//1
f 2//2 17//17 3//3
f 3//3 17//17 4//4
f 4//4 17//17 5//5
f 5//5 17//17 6//6
f 6//6 17//17 7//7
f 7//7 17//17 8//8
f 8//8 17//17 9//9
f 9//9 17//17 10//10
f 10//10 17//17 11//11
f 11//11 17//17 12//12
f 12//12 17//17 13//13
f 13//13 17//17 14//14
f 14//14 17//17 15//15
f 15//15 17//17 16//16
f 16//16 17//17 1//1
f 18//18 33//33 32//32 31//31 30//30 29//29 28//28 27//27 26//26 25//25 24//24 23//23 22//22 21//21 20//20 19//19
f 18//18 34//34 49//49 33//33
f 19//19 35//35 34//34 18//18
f 20//20 36//36 35//35 19//19
f 21//21 37//37 36//36 20//20
f 22//22 38//38 37//37 21//21
f 23//23 39//39 38//38 22//22
f 24//24 40//40 39//39 23//23
f 25//25 41//41 40//40 24//24
f 26//26 42//42 41//41 25//25
f 27//27 43//43 42//42 26//26
f 28//28 44//44 43//43 27//27
f 29//29 45//45 44//44 28//28
f 30//30 46//46 45//45 29//29
f 31//31 47//47 46//46 30//30
f 32//32 48//48 47//47 31//31
f 33//33 49//49 48//48 32//32
f 35//35 36//36 37//37 38//38 39//39 40//40 41//41 42//42 43//43 44//44 45//45 46//46 47//47 48//48 49//49 34//34
