# Exported from Wings 3D 0.98.31
#163 vertices, 163 faces
v 0.13929677 0.33629215 0.24355556
v 0.12869343 0.33629215 0.29686212
v 9.8497690e-2 0.33629215 0.34205325
v 5.3306566e-2 0.33629215 0.37224899
v -1.9343256e-17 0.33629215 0.38285232
v -5.3306566e-2 0.33629215 0.37224899
v -9.8497690e-2 0.33629215 0.34205325
v -0.12869343 0.33629215 0.29686212
v -0.13929677 0.33629215 0.24355556
v -0.12869343 0.33629215 0.19024899
v -9.8497690e-2 0.33629215 0.14505787
v -5.3306566e-2 0.33629215 0.11486212
v -5.3459998e-17 0.33629215 0.10425879
v 5.3306566e-2 0.33629215 0.11486212
v 9.8497690e-2 0.33629215 0.14505787
v 0.12869343 0.33629215 0.19024899
v 0.25738687 0.25738687 0.24355556
v 0.23779446 0.25738687 0.34205325
v 0.18200000 0.25738687 0.42555556
v 9.8497690e-2 0.25738687 0.48135002
v -1.2112561e-17 0.25738687 0.50094242
v -9.8497690e-2 0.25738687 0.48135002
v -0.18200000 0.25738687 0.42555556
v -0.23779446 0.25738687 0.34205325
v -0.25738687 0.25738687 0.24355556
v -0.23779446 0.25738687 0.14505787
v -0.18200000 0.25738687 6.1555556e-2
v -9.8497690e-2 0.25738687 5.7610959e-3
v -7.5152080e-17 0.25738687 -1.3831313e-2
v 9.8497690e-2 0.25738687 5.7610959e-3
v 0.18200000 0.25738687 6.1555556e-2
v 0.23779446 0.25738687 0.14505787
v 0.33629215 0.13929677 0.24355556
v 0.31069343 0.13929677 0.37224899
v 0.23779446 0.13929677 0.48135002
v 0.12869343 0.13929677 0.55424899
v -7.2811660e-18 0.13929677 0.57984771
v -0.12869343 0.13929677 0.55424899
v -0.23779446 0.13929677 0.48135002
v -0.31069343 0.13929677 0.37224899
v -0.33629215 0.13929677 0.24355556
v -0.31069343 0.13929677 0.11486212
v -0.23779446 0.13929677 5.7610959e-3
v -0.12869343 0.13929677 -6.7137879e-2
v -8.9646267e-17 0.13929677 -9.2736594e-2
v 0.12869343 0.13929677 -6.7137879e-2
v 0.23779446 0.13929677 5.7610959e-3
v 0.31069343 0.13929677 0.11486212
v 0.36400000 1.2286578e-18 0.24355556
v 0.33629215 1.2286578e-18 0.38285232
v 0.25738687 1.2286578e-18 0.50094242
v 0.13929677 1.2286578e-18 0.57984771
v -5.5846056e-18 1.2286578e-18 0.60755556
v -0.13929677 1.2286578e-18 0.57984771
v -0.25738687 1.2286578e-18 0.50094242
v -0.33629215 1.2286578e-18 0.38285232
v -0.36400000 1.2286578e-18 0.24355556
v -0.33629215 1.2286578e-18 0.10425879
v -0.25738687 1.2286578e-18 -1.3831313e-2
v -0.13929677 1.2286578e-18 -9.2736594e-2
v -9.4735948e-17 1.2286578e-18 -0.12044444
v 0.13929677 1.2286578e-18 -9.2736594e-2
v 0.25738687 1.2286578e-18 -1.3831313e-2
v 0.33629215 1.2286578e-18 0.10425879
v 0.33629215 -0.13929677 0.24355556
v 0.31069343 -0.13929677 0.37224899
v 0.23779446 -0.13929677 0.48135002
v 0.12869343 -0.13929677 0.55424899
v -7.2811660e-18 -0.13929677 0.57984771
v -0.12869343 -0.13929677 0.55424899
v -0.23779446 -0.13929677 0.48135002
v -0.31069343 -0.13929677 0.37224899
v -0.33629215 -0.13929677 0.24355556
v -0.31069343 -0.13929677 0.11486212
v -0.23779446 -0.13929677 5.7610959e-3
v -0.12869343 -0.13929677 -6.7137879e-2
v -8.9646267e-17 -0.13929677 -9.2736594e-2
v 0.12869343 -0.13929677 -6.7137879e-2
v 0.23779446 -0.13929677 5.7610959e-3
v 0.31069343 -0.13929677 0.11486212
v 0.25738687 -0.25738687 0.24355556
v 0.23779446 -0.25738687 0.34205325
v 0.18200000 -0.25738687 0.42555556
v 9.8497690e-2 -0.25738687 0.48135002
v -1.2112561e-17 -0.25738687 0.50094242
v -9.8497690e-2 -0.25738687 0.48135002
v -0.18200000 -0.25738687 0.42555556
v -0.23779446 -0.25738687 0.34205325
v -0.25738687 -0.25738687 0.24355556
v -0.23779446 -0.25738687 0.14505787
v -0.18200000 -0.25738687 6.1555556e-2
v -9.8497690e-2 -0.25738687 5.7610959e-3
v -7.5152080e-17 -0.25738687 -1.3831313e-2
v 9.8497690e-2 -0.25738687 5.7610959e-3
v 0.18200000 -0.25738687 6.1555556e-2
v 0.23779446 -0.25738687 0.14505787
v 0.13929677 -0.33629215 0.24355556
v 0.12869343 -0.33629215 0.29686212
v 9.8497690e-2 -0.33629215 0.34205325
v 5.3306566e-2 -0.33629215 0.37224899
v -1.9343256e-17 -0.33629215 0.38285232
v -5.3306566e-2 -0.33629215 0.37224899
v -9.8497690e-2 -0.33629215 0.34205325
v -0.12869343 -0.33629215 0.29686212
v -0.13929677 -0.33629215 0.24355556
v -0.12869343 -0.33629215 0.19024899
v -9.8497690e-2 -0.33629215 0.14505787
v -5.3306566e-2 -0.33629215 0.11486212
v -5.3459998e-17 -0.33629215 0.10425879
v 5.3306566e-2 -0.33629215 0.11486212
v 9.8497690e-2 -0.33629215 0.14505787
v 0.12869343 -0.33629215 0.19024899
v -2.7872441e-17 0.36400000 0.24355556
v -2.7872441e-17 -0.36400000 0.24355556
v 0.20020000 -4.2853496e-2 0.79644864
v 0.18496068 -0.11769097 0.78004932
v 0.14156278 -0.18113513 0.76614665
v 7.6613223e-2 -0.22352715 0.75685718
v -2.6021486e-17 -0.23841325 0.75359515
v -7.6613223e-2 -0.22352715 0.75685718
v -0.14156278 -0.18113513 0.76614665
v -0.18496068 -0.11769097 0.78004932
v -0.20020000 -4.2853496e-2 0.79644864
v -0.18496068 3.1983982e-2 0.81284797
v -0.14156278 9.5428133e-2 0.82675064
v -7.6613223e-2 0.13782016 0.83604011
v -7.5054725e-17 0.15270626 0.83930214
v 7.6613223e-2 0.13782016 0.83604011
v 0.14156278 9.5428133e-2 0.82675064
v 0.18496068 3.1983982e-2 0.81284797
v 0.20020000 4.2853496e-2 0.40532913
v 0.18496068 -3.1983982e-2 0.38892981
v 0.14156278 -9.5428133e-2 0.37502714
v 7.6613223e-2 -0.13782016 0.36573767
v -2.6021486e-17 -0.15270626 0.36247564
v -7.6613223e-2 -0.13782016 0.36573767
v -0.14156278 -9.5428133e-2 0.37502714
v -0.18496068 -3.1983982e-2 0.38892981
v -0.20020000 4.2853496e-2 0.40532913
v -0.18496068 0.11769097 0.42172846
v -0.14156278 0.18113513 0.43563113
v -7.6613223e-2 0.22352715 0.44492060
v -7.5054725e-17 0.23841325 0.44818263
v 7.6613223e-2 0.22352715 0.44492060
v 0.14156278 0.18113513 0.43563113
v 0.18496068 0.11769097 0.42172846
v -2.8701332e-3 -0.40423276 4.9777778e-2
v -4.7911866e-3 -0.38604676 0.14171365
v -1.0261884e-2 -0.33425742 0.21965311
v -1.8449361e-2 -0.25674919 0.27173060
v -2.8107148e-2 -0.16532200 0.29001778
v -3.7764936e-2 -7.3894813e-2 0.27173060
v -4.5952412e-2 3.6134159e-3 0.21965311
v -5.1423110e-2 5.5402758e-2 0.14171365
v -5.3344163e-2 7.3588757e-2 4.9777778e-2
v -5.1423110e-2 5.5402758e-2 -4.2158090e-2
v -4.5952412e-2 3.6134159e-3 -0.12009756
v -3.7764936e-2 -7.3894813e-2 -0.17217504
v -2.8107148e-2 -0.16532200 -0.19046222
v -1.8449361e-2 -0.25674919 -0.17217504
v -1.0261884e-2 -0.33425742 -0.12009756
v -4.7911866e-3 -0.38604676 -4.2158090e-2
v 0.44971437 -0.11484797 4.9777778e-2
vn 0.38219484 0.92408176 -2.7331076e-16
vn 0.35310199 0.92408176 0.14625963
vn 0.27025256 0.92408176 0.27025256
vn 0.14625963 0.92408176 0.35310199
vn 7.4539299e-17 0.92408176 0.38219484
vn -0.14625963 0.92408176 0.35310199
vn -0.27025256 0.92408176 0.27025256
vn -0.35310199 0.92408176 0.14625963
vn -0.38219484 0.92408176 7.0989809e-18
vn -0.35310199 0.92408176 -0.14625963
vn -0.27025256 0.92408176 -0.27025256
vn -0.14625963 0.92408176 -0.35310199
vn 3.5494904e-18 0.92408176 -0.38219484
vn 0.14625963 0.92408176 -0.35310199
vn 0.27025256 0.92408176 -0.27025256
vn 0.35310199 0.92408176 -0.14625963
vn 0.70658450 0.70762868 -2.2861835e-16
vn 0.65279895 0.70762868 0.27039818
vn 0.49963069 0.70762868 0.49963069
vn 0.27039818 0.70762868 0.65279895
vn 1.0002053e-16 0.70762868 0.70658450
vn -0.27039818 0.70762868 0.65279895
vn -0.49963069 0.70762868 0.49963069
vn -0.65279895 0.70762868 0.27039818
vn -0.70658450 0.70762868 1.0002053e-16
vn -0.65279895 0.70762868 -0.27039818
vn -0.49963069 0.70762868 -0.49963069
vn -0.27039818 0.70762868 -0.65279895
vn -1.2859782e-16 0.70762868 -0.70658450
vn 0.27039818 0.70762868 -0.65279895
vn 0.49963069 0.70762868 -0.49963069
vn 0.65279895 0.70762868 -0.27039818
vn 0.92368212 0.38315969 -2.8758115e-16
vn 0.85337100 0.38315969 0.35347784
vn 0.65314189 0.38315969 0.65314189
vn 0.35347784 0.38315969 0.85337100
vn 2.8758115e-17 0.38315969 0.92368212
vn -0.35347784 0.38315969 0.85337100
vn -0.65314189 0.38315969 0.65314189
vn -0.85337100 0.38315969 0.35347784
vn -0.92368212 0.38315969 1.0784293e-16
vn -0.85337100 0.38315969 -0.35347784
vn -0.65314189 0.38315969 -0.65314189
vn -0.35347784 0.38315969 -0.85337100
vn -3.3071833e-16 0.38315969 -0.92368212
vn 0.35347784 0.38315969 -0.85337100
vn 0.65314189 0.38315969 -0.65314189
vn 0.85337100 0.38315969 -0.35347784
vn 1.00000000 3.6041063e-17 -3.2436957e-16
vn 0.92387953 7.2082126e-17 0.38268343
vn 0.70710678 5.0457488e-17 0.70710678
vn 0.38268343 9.3706763e-17 0.92387953
vn 1.4416425e-17 2.1624638e-17 1.00000000
vn -0.38268343 -7.2082126e-17 0.92387953
vn -0.70710678 4.3249275e-17 0.70710678
vn -0.92387953 5.0457488e-17 0.38268343
vn -1.00000000 2.1624638e-17 8.6498551e-17
vn -0.92387953 3.6041063e-17 -0.38268343
vn -0.70710678 1.4416425e-17 -0.70710678
vn -0.38268343 7.2082126e-18 -0.92387953
vn -4.1086812e-16 1.4416425e-17 -1.00000000
vn 0.38268343 2.1624638e-17 -0.92387953
vn 0.70710678 2.8832850e-17 -0.70710678
vn 0.92387953 3.6041063e-17 -0.38268343
vn 0.92368212 -0.38315969 -3.5228691e-16
vn 0.85337100 -0.38315969 0.35347784
vn 0.65314189 -0.38315969 0.65314189
vn 0.35347784 -0.38315969 0.85337100
vn 2.1568586e-17 -0.38315969 0.92368212
vn -0.35347784 -0.38315969 0.85337100
vn -0.65314189 -0.38315969 0.65314189
vn -0.85337100 -0.38315969 0.35347784
vn -0.92368212 -0.38315969 1.7254869e-16
vn -0.85337100 -0.38315969 -0.35347784
vn -0.65314189 -0.38315969 -0.65314189
vn -0.35347784 -0.38315969 -0.85337100
vn -3.3071833e-16 -0.38315969 -0.92368212
vn 0.35347784 -0.38315969 -0.85337100
vn 0.65314189 -0.38315969 -0.65314189
vn 0.85337100 -0.38315969 -0.35347784
vn 0.70658450 -0.70762868 -2.4290700e-16
vn 0.65279895 -0.70762868 0.27039818
vn 0.49963069 -0.70762868 0.49963069
vn 0.27039818 -0.70762868 0.65279895
vn 4.6438103e-17 -0.70762868 0.70658450
vn -0.27039818 -0.70762868 0.65279895
vn -0.49963069 -0.70762868 0.49963069
vn -0.65279895 -0.70762868 0.27039818
vn -0.70658450 -0.70762868 1.8575241e-16
vn -0.65279895 -0.70762868 -0.27039818
vn -0.49963069 -0.70762868 -0.49963069
vn -0.27039818 -0.70762868 -0.65279895
vn -1.2145350e-16 -0.70762868 -0.70658450
vn 0.27039818 -0.70762868 -0.65279895
vn 0.49963069 -0.70762868 -0.49963069
vn 0.65279895 -0.70762868 -0.27039818
vn 0.38219484 -0.92408176 -6.7440318e-17
vn 0.35310199 -0.92408176 0.14625963
vn 0.27025256 -0.92408176 0.27025256
vn 0.14625963 -0.92408176 0.35310199
vn 4.2593885e-17 -0.92408176 0.38219484
vn -0.14625963 -0.92408176 0.35310199
vn -0.27025256 -0.92408176 0.27025256
vn -0.35310199 -0.92408176 0.14625963
vn -0.38219484 -0.92408176 -1.0293522e-16
vn -0.35310199 -0.92408176 -0.14625963
vn -0.27025256 -0.92408176 -0.27025256
vn -0.14625963 -0.92408176 -0.35310199
vn 0.0000000e+0 -0.92408176 -0.38219484
vn 0.14625963 -0.92408176 -0.35310199
vn 0.27025256 -0.92408176 -0.27025256
vn 0.35310199 -0.92408176 -0.14625963
vn -7.0801599e-18 1.00000000 -2.3895539e-17
vn 1.7700400e-18 -1.00000000 -7.8766778e-17
vn 0.89090915 -9.7219118e-2 0.44365451
vn 0.82309273 -0.43025306 0.37067595
vn 0.62996790 -0.71258560 0.30880772
vn 0.34093617 -0.90123417 0.26746869
vn 2.0169712e-16 -0.96747874 0.25295235
vn -0.34093617 -0.90123417 0.26746869
vn -0.62996790 -0.71258560 0.30880772
vn -0.82309273 -0.43025306 0.37067595
vn -0.89090915 -9.7219118e-2 0.44365451
vn -0.82309273 0.23581482 0.51663306
vn -0.62996790 0.51814736 0.57850130
vn -0.34093617 0.70679593 0.61984033
vn -2.2690927e-16 0.77304050 0.63435667
vn 0.34093617 0.70679593 0.61984033
vn 0.62996790 0.51814736 0.57850130
vn 0.82309273 0.23581482 0.51663306
vn 0.89090915 9.7219118e-2 -0.44365451
vn 0.82309273 -0.23581482 -0.51663306
vn 0.62996790 -0.51814736 -0.57850130
vn 0.34093617 -0.70679593 -0.61984033
vn 7.5636422e-17 -0.77304050 -0.63435667
vn -0.34093617 -0.70679593 -0.61984033
vn -0.62996790 -0.51814736 -0.57850130
vn -0.82309273 -0.23581482 -0.51663306
vn -0.89090915 9.7219118e-2 -0.44365451
vn -0.82309273 0.43025306 -0.37067595
vn -0.62996790 0.71258560 -0.30880772
vn -0.34093617 0.90123417 -0.26746869
vn -3.5296997e-16 0.96747874 -0.25295235
vn 0.34093617 0.90123417 -0.26746869
vn 0.62996790 0.71258560 -0.30880772
vn 0.82309273 0.43025306 -0.37067595
vn 3.7542785e-2 -0.99929502 2.0440412e-16
vn 2.9564705e-2 -0.92376909 0.38180701
vn 6.8450579e-3 -0.70868945 0.70548736
vn -2.7157297e-2 -0.38680001 0.92176365
vn -6.7265810e-2 -7.1055329e-3 0.99770979
vn -0.10737432 0.37258895 0.92176365
vn -0.14137668 0.69447838 0.70548736
vn -0.16409633 0.90955803 0.38180701
vn -0.17207440 0.98508396 2.3585090e-16
vn -0.16409633 0.90955803 -0.38180701
vn -0.14137668 0.69447838 -0.70548736
vn -0.10737432 0.37258895 -0.92176365
vn -6.7265810e-2 -7.1055329e-3 -0.99770979
vn -2.7157297e-2 -0.38680001 -0.92176365
vn 6.8450579e-3 -0.70868945 -0.70548736
vn 2.9564705e-2 -0.92376909 -0.38180701
vn 0.99446703 0.10504918 -2.2851255e-16
f 1//1 17//17 32//32 16//16
f 1//1 113//113 2//2
f 2//2 18//18 17//17 1//1
f 2//2 113//113 3//3
f 3//3 19//19 18//18 2//2
f 3//3 113//113 4//4
f 4//4 20//20 19//19 3//3
f 4//4 113//113 5//5
f 5//5 21//21 20//20 4//4
f 5//5 113//113 6//6
f 6//6 22//22 21//21 5//5
f 6//6 113//113 7//7
f 7//7 23//23 22//22 6//6
f 7//7 113//113 8//8
f 8//8 24//24 23//23 7//7
f 8//8 113//113 9//9
f 9//9 25//25 24//24 8//8
f 9//9 113//113 10//10
f 10//10 26//26 25//25 9//9
f 10//10 113//113 11//11
f 11//11 27//27 26//26 10//10
f 11//11 113//113 12//12
f 12//12 28//28 27//27 11//11
f 12//12 113//113 13//13
f 13//13 29//29 28//28 12//12
f 13//13 113//113 14//14
f 14//14 30//30 29//29 13//13
f 14//14 113//113 15//15
f 15//15 31//31 30//30 14//14
f 15//15 113//113 16//16
f 16//16 32//32 31//31 15//15
f 16//16 113//113 1//1
f 17//17 33//33 48//48 32//32
f 18//18 34//34 33//33 17//17
f 19//19 35//35 34//34 18//18
f 20//20 36//36 35//35 19//19
f 21//21 37//37 36//36 20//20
f 22//22 38//38 37//37 21//21
f 23//23 39//39 38//38 22//22
f 24//24 40//40 39//39 23//23
f 25//25 41//41 40//40 24//24
f 26//26 42//42 41//41 25//25
f 27//27 43//43 42//42 26//26
f 28//28 44//44 43//43 27//27
f 29//29 45//45 44//44 28//28
f 30//30 46//46 45//45 29//29
f 31//31 47//47 46//46 30//30
f 32//32 48//48 47//47 31//31
f 33//33 49//49 64//64 48//48
f 34//34 50//50 49//49 33//33
f 35//35 51//51 50//50 34//34
f 36//36 52//52 51//51 35//35
f 37//37 53//53 52//52 36//36
f 38//38 54//54 53//53 37//37
f 39//39 55//55 54//54 38//38
f 40//40 56//56 55//55 39//39
f 41//41 57//57 56//56 40//40
f 42//42 58//58 57//57 41//41
f 43//43 59//59 58//58 42//42
f 44//44 60//60 59//59 43//43
f 45//45 61//61 60//60 44//44
f 46//46 62//62 61//61 45//45
f 47//47 63//63 62//62 46//46
f 48//48 64//64 63//63 47//47
f 49//49 65//65 80//80 64//64
f 50//50 66//66 65//65 49//49
f 51//51 67//67 66//66 50//50
f 52//52 68//68 67//67 51//51
f 53//53 69//69 68//68 52//52
f 54//54 70//70 69//69 53//53
f 55//55 71//71 70//70 54//54
f 56//56 72//72 71//71 55//55
f 57//57 73//73 72//72 56//56
f 58//58 74//74 73//73 57//57
f 59//59 75//75 74//74 58//58
f 60//60 76//76 75//75 59//59
f 61//61 77//77 76//76 60//60
f 62//62 78//78 77//77 61//61
f 63//63 79//79 78//78 62//62
f 64//64 80//80 79//79 63//63
f 65//65 81//81 96//96 80//80
f 66//66 82//82 81//81 65//65
f 67//67 83//83 82//82 66//66
f 68//68 84//84 83//83 67//67
f 69//69 85//85 84//84 68//68
f 70//70 86//86 85//85 69//69
f 71//71 87//87 86//86 70//70
f 72//72 88//88 87//87 71//71
f 73//73 89//89 88//88 72//72
f 74//74 90//90 89//89 73//73
f 75//75 91//91 90//90 74//74
f 76//76 92//92 91//91 75//75
f 77//77 93//93 92//92 76//76
f 78//78 94//94 93//93 77//77
f 79//79 95//95 94//94 78//78
f 80//80 96//96 95//95 79//79
f 81//81 97//97 112//112 96//96
f 82//82 98//98 97//97 81//81
f 83//83 99//99 98//98 82//82
f 84//84 100//100 99//99 83//83
f 85//85 101//101 100//100 84//84
f 86//86 102//102 101//101 85//85
f 87//87 103//103 102//102 86//86
f 88//88 104//104 103//103 87//87
f 89//89 105//105 104//104 88//88
f 90//90 106//106 105//105 89//89
f 91//91 107//107 106//106 90//90
f 92//92 108//108 107//107 91//91
f 93//93 109//109 108//108 92//92
f 94//94 110//110 109//109 93//93
f 95//95 111//111 110//110 94//94
f 96//96 112//112 111//111 95//95
f 97//97 114//114 112//112
f 98//98 114//114 97//97
f 99//99 114//114 98//98
f 100//100 114//114 99//99
f 101//101 114//114 100//100
f 102//102 114//114 101//101
f 103//103 114//114 102//102
f 104//104 114//114 103//103
f 105//105 114//114 104//104
f 106//106 114//114 105//105
f 107//107 114//114 106//106
f 108//108 114//114 107//107
f 109//109 114//114 108//108
f 110//110 114//114 109//109
f 111//111 114//114 110//110
f 112//112 114//114 111//111
f 115//115 130//130 129//129 128//128 127//127 126//126 125//125 124//124 123//123 122//122 121//121 120//120 119//119 118//118 117//117 116//116
f 115//115 131//131 146//146 130//130
f 116//116 132//132 131//131 115//115
f 117//117 133//133 132//132 116//116
f 118//118 134//134 133//133 117//117
f 119//119 135//135 134//134 118//118
f 120//120 136//136 135//135 119//119
f 121//121 137//137 136//136 120//120
f 122//122 138//138 137//137 121//121
f 123//123 139//139 138//138 122//122
f 124//124 140//140 139//139 123//123
f 125//125 141//141 140//140 124//124
f 126//126 142//142 141//141 125//125
f 127//127 143//143 142//142 126//126
f 128//128 144//144 143//143 127//127
f 129//129 145//145 144//144 128//128
f 130//130 146//146 145//145 129//129
f 132//132 133//133 134//134 135//135 136//136 137//137 138//138 139//139 140//140 141//141 142//142 143//143 144//144 145//145 146//146 131//131
f 147//147 163//163 148//148
f 148//148 149//149 150//150 151//151 152//152 153//153 154//154 155//155 156//156 157//157 158//158 159//159 160//160 161//161 162//162 147//147
f 148//148 163//163 149//149
f 149//149 163//163 150//150
f 150//150 163//163 151//151
f 151//151 163//163 152//152
f 152//152 163//163 153//153
f 153//153 163//163 154//154
f 154//154 163//163 155//155
f 155//155 163//163 156//156
f 156//156 163//163 157//157
f 157//157 163//163 158//158
f 158//158 163//163 159//159
f 159//159 163//163 160//160
f 160//160 163//163 161//161
f 161//161 163//163 162//162
f 162//162 163//163 147//147
